<svg id="Layer_1" data-name="Layer 1" xmlns="http://www.w3.org/2000/svg" viewBox="0 0 1215.95 195.21"><defs><style>.cls-1{fill:#103e2e;}.cls-2{font-size:168px;font-family:HelveticaNeue-Light, Helvetica Neue;}.cls-2,.cls-5{fill:#4e7854;}.cls-3{fill:#38633e;}.cls-4{fill:#294f2e;}.cls-6{fill:#f60;}</style></defs><title>django-logo-positive</title><path class="cls-1" d="M296.31,18.11h26.16V139.22c-13.42,2.55-23.28,3.57-34,3.57-31.94,0-48.59-14.44-48.59-42.14,0-26.67,17.67-44,45-44A41.84,41.84,0,0,1,296.31,58Zm0,61a26,26,0,0,0-8.84-1.36c-13.25,0-20.9,8.16-20.9,22.43,0,13.93,7.31,21.58,20.73,21.58a61,61,0,0,0,9-.68Z"/><path class="cls-1" d="M364.09,58.52v60.65c0,20.9-1.53,30.92-6.11,39.58-4.25,8.33-9.86,13.6-21.41,19.37l-24.3-11.55c11.56-5.44,17.16-10.19,20.73-17.5,3.74-7.48,4.93-16.14,4.93-38.91V58.52ZM337.93,18.25h26.16V45.09H337.93Z"/><path class="cls-1" d="M379.9,64.46a78.74,78.74,0,0,1,34.65-7.81c13.43,0,22.26,3.57,26.17,10.53,2.21,3.91,2.89,9,2.89,19.88v53.18a289.59,289.59,0,0,1-37.38,2.88c-21.92,0-31.77-7.64-31.77-24.63,0-18.35,13.08-26.85,45.19-29.56V83.15c0-4.76-2.38-6.45-9-6.45-9.69,0-20.56,2.71-30.76,8V64.46Zm40.94,41.63c-17.33,1.7-22.94,4.42-22.94,11.21,0,5.1,3.23,7.48,10.37,7.48a72.12,72.12,0,0,0,12.57-1.19v-17.5Z"/><path class="cls-1" d="M456.35,62.59c15.46-4.07,28.2-5.94,41.11-5.94,13.42,0,23.11,3.06,28.89,9,5.43,5.61,7.13,11.72,7.13,24.81v51.3H507.32V91.48c0-10-3.4-13.77-12.74-13.77a39.42,39.42,0,0,0-12.07,1.87v62.18H456.35Z"/><path class="cls-1" d="M543.65,156a59.65,59.65,0,0,0,28,7c17.16,0,24.47-7,24.47-23.61v-.51c-5.1,2.54-10.2,3.56-17,3.56-22.94,0-37.55-15.12-37.55-39.07,0-29.73,21.58-46.55,59.8-46.55a165.8,165.8,0,0,1,34.16,3.73l-9,18.88c-7-1.36-.56-.19-5.83-.69v2.71l.34,11,.17,14.27c.17,3.56.17,7.13.34,10.7v7.14c0,22.42-1.87,33-7.47,41.62-8.16,12.74-22.26,19-42.31,19a74.82,74.82,0,0,1-28.2-5.1V156Zm52-78.16h-2.72a28.58,28.58,0,0,0-15.12,3.74c-6.28,3.57-9.51,10-9.51,19.2,0,13.08,6.45,20.56,18,20.56a32.45,32.45,0,0,0,9.85-1.7v-9c0-3.06-.17-6.46-.17-10l-.17-12.06-.17-8.67v-2Z"/><path class="cls-1" d="M676.18,56.31c26.17,0,42.14,16.48,42.14,43.15,0,27.36-16.65,44.52-43.16,44.52-26.16,0-42.3-16.49-42.3-43C632.86,73.47,649.51,56.31,676.18,56.31Zm-.51,66.6c10,0,16-8.33,16-22.77,0-14.27-5.77-22.77-15.8-22.77-10.36,0-16.31,8.33-16.31,22.77S665.48,122.91,675.67,122.91Z"/><text class="cls-2" transform="translate(727.41 143.98)">viewlet</text><path class="cls-3" d="M10,4.92H90.34a0,0,0,0,1,0,0V95.27a0,0,0,0,1,0,0H0a0,0,0,0,1,0,0V14.92A10,10,0,0,1,10,4.92Z"/><path class="cls-4" d="M0,95.27H90.34a0,0,0,0,1,0,0v90.34a0,0,0,0,1,0,0H10a10,10,0,0,1-10-10V95.27a0,0,0,0,1,0,0Z"/><path class="cls-5" d="M90.34,4.92h80.34a10,10,0,0,1,10,10V95.27a0,0,0,0,1,0,0H90.34a0,0,0,0,1,0,0V4.92A0,0,0,0,1,90.34,4.92Z"/><path class="cls-6" d="M102.13,107.05h78.56a0,0,0,0,1,0,0v68.56a10,10,0,0,1-10,10H102.13a0,0,0,0,1,0,0V107.05A0,0,0,0,1,102.13,107.05Z"/></svg>
